<svg width="17" height="18" viewBox="0 0 17 18" fill="none" xmlns="http://www.w3.org/2000/svg">
<rect width="16.48" height="17.97" rx="1" fill="#1D33F4"/>
<path d="M8.264 15.968C6.952 15.968 5.824 15.728 4.88 15.248C3.952 14.752 3.24 14.048 2.744 13.136C2.248 12.208 2 11.112 2 9.848V2H5.024V9.752C5.024 10.936 5.304 11.84 5.864 12.464C6.424 13.088 7.232 13.4 8.288 13.4C9.328 13.4 10.12 13.096 10.664 12.488C11.224 11.864 11.504 10.952 11.504 9.752V2H14.48V9.848C14.48 11.112 14.232 12.208 13.736 13.136C13.256 14.048 12.552 14.752 11.624 15.248C10.696 15.728 9.576 15.968 8.264 15.968Z" fill="white"/>
</svg>
