<svg width="82" height="29" viewBox="0 0 82 29" fill="none" xmlns="http://www.w3.org/2000/svg">
<rect x="36" width="46" height="29" fill="#1D33F4"/>
<path d="M8.208 23.24C6.896 23.24 5.768 23 4.824 22.52C3.896 22.024 3.184 21.32 2.688 20.408C2.192 19.48 1.944 18.384 1.944 17.12V9.272H4.968V17.024C4.968 18.208 5.248 19.112 5.808 19.736C6.368 20.36 7.176 20.672 8.232 20.672C9.272 20.672 10.064 20.368 10.608 19.76C11.168 19.136 11.448 18.224 11.448 17.024V9.272H14.424V17.12C14.424 18.384 14.176 19.48 13.68 20.408C13.2 21.32 12.496 22.024 11.568 22.52C10.64 23 9.52 23.24 8.208 23.24ZM20.9908 23V11.744H16.4788V9.272H28.5268V11.744H24.0148V23H20.9908ZM30.7052 23V9.272H33.7292V23H30.7052Z" fill="#1D33F4"/>
<path d="M37.9005 23V9.272H40.9245V20.552H47.9805V23H37.9005ZM50.2521 23V9.272H53.2761V23H50.2521ZM59.9674 23V11.744H55.4554V9.272H67.5034V11.744H62.9914V23H59.9674ZM72.8079 23V17.48L73.3839 19.4L67.2399 9.272H70.4559L75.2559 17.096H73.5759L78.3759 9.272H81.4479L75.3039 19.4L75.8559 17.48V23H72.8079Z" fill="white"/>
</svg>
